# xmcd
#
# Track frame offsets:
#  150
#  16467
#  33825
#  49945
#  69297
#  90480
#  103395
#  122170
#  138642
#  152992
#  167340
#  184580
#  200305
#  219677
#
# Disc length: 3124 seconds
#
# Revision: 0
# Processed by: cddbd v1.5.2PL0 Copyright (c) Steve Scherf et al.
# Submitted via: AltoMP3_Maker 3.0
#
DISCID=c10c320e
DTITLE=Kenny Rogers - Meus Momentos
DYEAR=1900
DGENRE=
TTITLE0=You Decorate My Life
TTITLE1=Lady
TTITLE2=Lucille
TTITLE3=Sweet Music Man
TTITLE4=Through The Years
TTITLE5=Love Or Something Like It
TTITLE6=She Believes In Me
TTITLE7=Don't Fall In Love With A Dreamer
TTITLE8=Daytime Friends
TTITLE9=Love The World Away
TTITLE10=We've Got Tonight
TTITLE11=The Gambler
TTITLE12=Coward Of The Country
TTITLE13=Share Your Love With Me
EXTD=
EXTT0=
EXTT1=
EXTT2=
EXTT3=
EXTT4=
EXTT5=
EXTT6=
EXTT7=
EXTT8=
EXTT9=
EXTT10=
EXTT11=
EXTT12=
EXTT13=
PLAYORDER=
